<?xml version="1.0" encoding="UTF-8" standalone="no"?>
<!DOCTYPE svg PUBLIC "-//W3C//DTD SVG 1.1//EN" "http://www.w3.org/Graphics/SVG/1.1/DTD/svg11.dtd">
<svg width="100%" height="100%" viewBox="0 0 256 256" version="1.1" xmlns="http://www.w3.org/2000/svg" xmlns:xlink="http://www.w3.org/1999/xlink" xml:space="preserve" xmlns:serif="http://www.serif.com/" style="fill-rule:evenodd;clip-rule:evenodd;stroke-linejoin:round;stroke-miterlimit:2;">
    <g transform="matrix(1,0,0,1,-779,-667)">
        <g transform="matrix(0.146286,0,0,0.232727,665.043429,511.770909)">
            <rect x="779" y="667" width="1750" height="1100" style="fill:rgb(255,254,39);"/>
        </g>
        <g transform="matrix(0.516114,0,0,0.516114,-160.700182,197.789807)">
            <path d="M1614.572,1449.965C1581.038,1526.347 1504.706,1579.75 1416,1579.75C1296.372,1579.75 1199.25,1482.628 1199.25,1363C1199.25,1243.372 1296.372,1146.25 1416,1146.25C1454.647,1146.25 1490.945,1156.386 1522.378,1174.143L1585,1094L1555,1094L1555,1065L1582,1065L1562,1008C1544.046,1006.864 1528.928,1007.202 1507,1004C1504.207,1003.592 1500.269,984.851 1508,982C1519.115,977.901 1631,983 1631,983C1631,983 1643.331,981.802 1651,988C1658.752,994.265 1657.541,998.074 1654,999C1646.65,1000.922 1582,1007 1582,1007L1603,1065L1946,1066C1946,1066 1946.273,1063.24 1948,1061C1949.727,1058.76 1948,1058 1948,1058L1932,994C1932,994 1929.185,991.668 1932,989C1934.815,986.332 1955,978 1955,978C1955,978 1919.948,977.979 1915,977C1910.052,976.021 1904.612,968.056 1907,964C1909.388,959.944 1917.388,958.79 1919,959C1920.612,959.21 1966.453,956.45 1970,958C1973.547,959.55 1996.652,965.818 1997,972C1997.348,978.182 1962.938,1000.329 1962,1003C1961.062,1005.671 1961,1010 1961,1010L1978,1065L2005,1065L2005,1092L1992,1105L2011,1152L2013.679,1160.931C2035.734,1153.36 2059.391,1149.25 2084,1149.25C2203.628,1149.25 2300.75,1246.372 2300.75,1366C2300.75,1485.628 2203.628,1582.75 2084,1582.75C1964.372,1582.75 1867.25,1485.628 1867.25,1366C1867.25,1282.961 1914.048,1210.765 1982.686,1174.371L1962,1133L1726.863,1382.198C1739.013,1388.785 1762.447,1406.168 1756,1440C1754.43,1448.24 1751.023,1454.428 1746.536,1459.047C1748.689,1461.427 1750.316,1463.231 1751,1464C1754.332,1467.746 1775.161,1490.085 1778,1493C1780.839,1495.915 1789,1495 1789,1495C1789,1495 1797.999,1495.423 1799,1496C1800.001,1496.577 1805.591,1501.301 1801,1509C1799.082,1512.217 1755.883,1516.242 1753,1513C1747.656,1506.991 1748.995,1498.662 1753,1497C1753.923,1496.617 1762,1496 1762,1496L1734.75,1467.081C1714.925,1475.829 1689,1470 1689,1470C1662.559,1462.795 1638.156,1456.249 1614.572,1449.965ZM1678.518,1373.542L1679,1373L1594,1116L1539.833,1185.13C1595.985,1224.315 1632.75,1289.398 1632.75,1363C1632.75,1364.508 1632.735,1366.013 1632.704,1367.514L1678.518,1373.542ZM1595.25,1362.585C1595.11,1301.129 1563.976,1246.895 1516.663,1214.701L1418.963,1339.39L1595.25,1362.585ZM1390.916,1343.133C1391.206,1342.229 1391.57,1341.501 1392,1341L1498.973,1204.097C1474.158,1191.102 1445.931,1183.75 1416,1183.75C1317.069,1183.75 1236.75,1264.069 1236.75,1363C1236.75,1461.931 1317.069,1542.25 1416,1542.25C1487.3,1542.25 1548.932,1500.531 1577.798,1440.193C1523.796,1425.868 1470.754,1411.835 1403,1393C1390.524,1389.532 1375.537,1380.786 1379,1360C1380.434,1351.391 1385.231,1346.216 1390.916,1343.133ZM1999.108,1208.117C1942.949,1238.4 1904.75,1297.774 1904.75,1366C1904.75,1464.931 1985.069,1545.25 2084,1545.25C2182.931,1545.25 2263.25,1464.931 2263.25,1366C2263.25,1267.069 2182.931,1186.75 2084,1186.75C2063.356,1186.75 2043.522,1190.248 2025.059,1196.682L2084.172,1331.116C2085.104,1331.039 2086.048,1331 2087,1331C2105.765,1331 2121,1346.235 2121,1365C2121,1383.765 2105.765,1399 2087,1399C2068.235,1399 2053,1383.765 2053,1365C2053,1355.939 2056.552,1347.701 2062.339,1341.604L1999.108,1208.117ZM1610,1094L1693,1356L1941,1097L1937,1094L1610,1094Z"/>
        </g>
    </g>
</svg>
